/* XPM */
static char *y4ld6_wyylj[] = {
/* columns rows colors chars-per-pixel */
"48 48 85 1 ",
"  c #020202",
". c #080807",
"X c #0B0B0C",
"o c #10100F",
"O c #0F0F12",
"+ c #141414",
"@ c #171718",
"# c #1C1C1C",
"$ c #1D1D21",
"% c #232324",
"& c #282827",
"* c #262628",
"= c #2B2B2B",
"- c #2C2C32",
"; c #333333",
": c #35353C",
"> c #3C3C3C",
", c #40403F",
"< c #3B3B41",
"1 c #434343",
"2 c #484847",
"3 c #454549",
"4 c #49494A",
"5 c #474752",
"6 c #4C4C53",
"7 c #4E4E5C",
"8 c #525255",
"9 c #55555B",
"0 c #59595E",
"q c #575760",
"w c #5D5D63",
"e c #5D5D6A",
"r c #606066",
"t c #64646C",
"y c #656573",
"u c #696975",
"i c #676779",
"p c #6B6B7C",
"a c #71717E",
"s c #747484",
"d c #797985",
"f c #767689",
"g c #7C7C8C",
"h c #7E7E91",
"j c #80808F",
"k c #838394",
"l c #8A8A97",
"z c #86869A",
"x c #8A8A9C",
"c c #91919E",
"v c #8D8DA2",
"b c #9393A4",
"n c #9999A5",
"m c #9595AA",
"M c #9B9BAC",
"N c #9B9BB2",
"B c #A1A1AE",
"V c #A3A3B4",
"C c #ABABB7",
"Z c #ABABBB",
"A c #B3B3BD",
"S c #B8B8BF",
"D c #B4B4C3",
"F c #B9B9C4",
"G c #B5B5C8",
"H c #BDBDCA",
"J c #C3C3CD",
"K c #C5C5D2",
"L c #CCCCD5",
"P c #CECED9",
"I c #D1D1D6",
"U c #D3D3DC",
"Y c #DCDCDE",
"T c #D6D6E0",
"R c #DBDBE3",
"E c #E4E4E5",
"W c #E4E4EA",
"Q c #EBEBEC",
"! c #F0F0EF",
"~ c #EDEDF2",
"^ c #F3F3F4",
"/ c #F9F9F7",
"( c #F6F6F8",
") c #FCFCFD",
"_ c None",
/* pixels */
"________________________________________________",
"________________________________________________",
"________________________________________________",
"________________________________________________",
"________________________________________________",
"_____________________1,>>>>_____________________",
"_________________21>>><31>>;;;;_________________",
"_______________21,4acAJKKHCly3;==_______________",
"_____________231rnP~)))/(^~~RKxq-&=_____________",
"____________218bW))))(^~~WWWRWWPx3&&____________",
"___________21uL)))))(~~~WWRRTTUTRGe&%___________",
"__________23dW))))(((~~WWERTUUPPLUKp&%__________",
"_________23dQ))/SU)^~QWWWRTTUUDbFKLKp##_________",
"________21uW))/cAcJ(~QWRRTUIUDzSjZHKHe##________",
"________38L))(MS/ExJ~WERTUIUFkI)LkVGJZ>@________",
"_______21c))/nF/YQQlHWRTUUUFjY^Y/IhNDHk%@_______",
"_______1rW))DS)EEE!QcARUIUDlY!EEY/YkVDD6O_______",
"______2>b)))YnE!EEE!QcDUUGlY^EEEQ^BxVNGf@+______",
"______18NQ)))JnQ!EEE!QxSFxR^EEEQ(MzNNNVh:X______",
"______,pNZ//^(Jx!^EQQ!QczR^QEQQ/nvVNNmgf9+______",
"______1gNvF(~~~JcQ^QQQ!QE/QQQ!^BxVNNNkrse@O_____",
"_____11xNvzK~QWWFnQ^EQQ!!EQQ!/CxVNNNkrwas@O_____",
"_____,3vmxzzFQEREDb!!Q!QQQQ^/BxVNNNzrwrii$._____",
"_____>3mmxxzzCURUYDMQ^Q!!!!^VvVNNmgrwwqus$._____",
"_____>3bbzzzkfcHTUFbW/!!!!^^nvNNxarwww0us$._____",
"_____>1vbzzkkkggnZnE/Q^!^!!/^nzgtrwrw00yi$._____",
"_____>>zmzkkjgjgsxW)(^^(^^^^(^Mrwrww000uyO _____",
"______:fmzkkgjfdxW)^^^/((/^^()^Mt0w0009ieX._____",
"______;ymzhggffvW)/((/)ZM^)((^)(Mr0008qi5 ______",
"______;3vvhggdbQ)/(//)ZauM()((/)(Mw997ys- ______",
"______;;dvkfgnW)///)/AattyV^)///)(Vt89ieO ______",
"_______=9vzdkU))))))SauuttyV()))))~f6wi< _______",
"_______;;dvhsbW))))DsttttrrtV()))^N08ieO _______",
"________&3zzfpbW))Fdtyutttr0yV()^Mq8yp- ________",
"________=&ezhspnQFattyttrrw09tZ~Nq4ti5  ________",
"_________&&tzgaplduutttrrrr098tkw6es7. _________",
"__________&&yzgsytytttrrww0009669tp7O __________",
"___________%%qhhsuttrrrww000899qii5. ___________",
"____________$#<phgsitewq0000wtise-  ____________",
"_____________#@$5yfgsaiyyyuippe<+  _____________",
"_______________@+#:7tppssiye5-X  _______________",
"_________________@X++@%%$$+X   _________________",
"____________________OXX. .. ____________________",
"________________________________________________",
"________________________________________________",
"________________________________________________",
"________________________________________________",
"________________________________________________"
};
