/* XPM */
static char *dummy[]={
"20 20 184 2",
"Qt c None",
"aU c #2b4484",
"aT c #4c83a8",
"aZ c #4b6b9c",
".g c #0698ab",
"ao c #1e3c7a",
".h c #4d77a5",
"a0 c #3f5c9a",
".N c #00a1af",
"a1 c #405d9c",
"aB c #1e3c7a",
".b c #4686a8",
".A c #00a0b0",
".a c #5fb3c4",
"aM c #314d96",
"aS c #4981a7",
".p c #049daf",
"aV c #3c589a",
"ab c #1e3c7c",
".# c #67b4c5",
"aY c #4a6ea2",
".1 c #57c2cb",
"ap c #1f3d7c",
".i c #4b7ba6",
".f c #269fb4",
".M c #00a2b1",
"aC c #536a9c",
"aL c #7dafc4",
".z c #019fb0",
"aN c #385499",
".c c #5199b5",
"#p c #415b95",
"aR c #4c7ba6",
".o c #0d9baf",
"ac c #1f3d7d",
"aW c #405f9d",
".q c #496fa1",
"aX c #4566a0",
"aD c #5d73ab",
"#f c #899dc3",
".j c #4983a9",
"ai c #98afcb",
"aq c #244282",
"#q c #f5f6f9",
".0 c #17abb9",
"au c #5674a8",
".L c #00a1b1",
"#e c #405c9d",
".e c #4da9bd",
"#d c #29b2be",
"at c #b3bfd8",
".d c #67adc1",
"aA c #519eb6",
"aj c #6890b5",
"ar c #40598f",
"aK c #518cae",
".y c #079caf",
"aO c #3e5b9c",
"#8 c #1e3c7c",
"#y c #52699b",
".4 c #6182af",
"#x c #1f3d7d",
"ay c #6898b7",
"#n c #13a7b6",
"aQ c #4b73a4",
"af c #4c6496",
"#b c #22acbb",
"#t c #3ba4ba",
".m c #419eb5",
"am c #4492af",
"ax c #4c7da6",
"#w c #009faf",
"#o c #00a4b4",
".Z c #00a6b6",
"#F c #019eae",
"#v c #029eaf",
".Y c #029eb0",
".K c #04a1b3",
"#P c #059bad",
"#E c #089aad",
"#a c #089db0",
".X c #0c99ac",
"#Y c #0d99ad",
"#u c #0d9cb0",
".J c #1199ad",
"#O c #1398ac",
".x c #179bb1",
"## c #1898ae",
"#D c #1997ac",
"#7 c #1a97ad",
"#0 c #1e3d7e",
".W c #1e96ac",
".n c #1e9ab1",
"#G c #1f3c7b",
"#Z c #1f3d7b",
"#Q c #1f3d7c",
"ad c #1f3d7d",
"#H c #1f3e7f",
"ae c #1f3f81",
"#R c #1f3f82",
"#X c #2095ad",
".I c #2395ac",
"#I c #24427f",
"#N c #2594ad",
".w c #2894ae",
"#6 c #2a93ac",
"#. c #2a97b1",
"#C c #2b98b3",
".V c #2d92ad",
"#W c #2e91ac",
"an c #3094af",
".H c #3191ad",
"aa c #338fab",
"#M c #3493b0",
"#5 c #378eaa",
"#k c #39a1b7",
"aE c #3d5a9f",
"#V c #3d8fae",
".U c #3d92b0",
".2 c #415f9d",
"a# c #418dad",
".9 c #4196b1",
"aF c #4362a0",
".O c #44649e",
"aP c #4464a1",
"#4 c #458cae",
"aG c #46679f",
".3 c #4769a4",
".k c #4790b2",
".P c #486ca0",
".B c #496ca3",
".t c #4987ac",
"aH c #4a6fa1",
".C c #4a71a2",
"av c #4b70a5",
"aI c #4b77a3",
".D c #4b78a4",
".s c #4b7fa8",
".E c #4b83ab",
"#m c #4bb8c5",
"#c c #4bbdc8",
"#1 c #4c6496",
".Q c #4c75a5",
".r c #4c78a7",
"aw c #4d77a7",
".R c #4d7eaa",
"aJ c #4d84ae",
".v c #4d9db6",
"#S c #516899",
".G c #5499b3",
"#l c #55b7c5",
"a. c #5690b2",
".l c #6ba9bf",
"#J c #6c80aa",
".T c #6ca2bc",
"#j c #6eb3c6",
".u c #71a7bf",
".F c #72a2bd",
"al c #73a5bf",
"az c #7eaec5",
"ak c #7fa7c1",
".S c #8eb0c8",
".8 c #92bdcf",
"#s c #a9d3de",
"#B c #add3de",
"#L c #b0d1dd",
"#3 c #b3ccdb",
"#U c #b3cfdc",
".5 c #b5c6da",
"#z c #bbc4d7",
"#9 c #bfd3e0",
"#i c #d1e4eb",
"#K c #d2d8e5",
".7 c #e6eff3",
"#g c #e9edf3",
"ah c #eff2f7",
"as c #f2f4f8",
".6 c #f5f8fa",
"#2 c #f7f8fa",
"ag c #f8f9fb",
"#T c #f9fafb",
"#r c #f9fbfc",
"#A c #fdfdfe",
"#h c #ffffff",
"QtQtQtQtQtQtQt.#.aQtQtQtQtQtQtQtQtQtQtQt",
"QtQtQtQtQt.b.c.d.e.f.gQtQtQtQtQtQtQtQtQt",
"QtQtQt.h.i.j.k.l.m.n.o.pQtQtQtQtQtQtQtQt",
"QtQtQt.q.r.s.t.u.v.w.x.y.z.AQtQtQtQtQtQt",
"QtQtQt.B.C.D.E.F.G.H.I.J.K.L.M.NQtQtQtQt",
"QtQtQt.O.P.Q.R.S.T.U.V.W.X.Y.Z.0.1QtQtQt",
"QtQtQt.2.3.4.5.6.7.8.9#.###a#b#c#dQtQtQt",
"QtQtQt#e#f#g#h#h#h#h#i#j#k#l#m#n#oQtQtQt",
"QtQtQt#p#q#h#h#h#h#h#h#r#s#t#u#v#wQtQtQt",
"QtQtQt#x#y#z#A#h#h#h#h#h#B#C#D#E#FQtQtQt",
"QtQtQt#G#H#I#J#K#h#h#h#h#L#M#N#O#PQtQtQt",
"QtQtQt#Q#G#Q#R#S#T#h#h#h#U#V#W#X#YQtQtQt",
"QtQtQt#Q#Z#Q#0#1#2#h#h#h#3#4#5#6#7QtQtQt",
"QtQtQt#8#H#Z#H#1#2#h#h#h#9a.a#aa#NQtQtQt",
"QtQtQtabacadaeafag#hahaiajakalamanQtQtQt",
"QtQtQtQtaoapaqarasatauavawaxayazaAQtQtQt",
"QtQtQtQtQtQtaBaCaDaEaFaGaHaIaJaKaLQtQtQt",
"QtQtQtQtQtQtQtQtaMaNaOaP.BaQaRaSaTQtQtQt",
"QtQtQtQtQtQtQtQtQtaUaVaWaXaYaZQtQtQtQtQt",
"QtQtQtQtQtQtQtQtQtQtQta0a1QtQtQtQtQtQtQt"};
