/* XPM */
static char *s0hr6_i0fcs[] = {
/* columns rows colors chars-per-pixel */
"139 133 2 1 ",
"  c #83496A",
". c None",
/* pixels */
".....................................................................................      ................................................",
"..................................................................................            .............................................",
"................................................................................                ...........................................",
"...............................................................................                  ..........................................",
"..............................................................................                    .........................................",
".............................................................................                      ........................................",
"............................................................................                        .......................................",
"............................................................................                        .......................................",
"...........................................................................          ......          ......................................",
"..........................................................................          .........        ......................................",
".......................................................................            ..........         .....................................",
"....................................................................              ............        .....................................",
".................................................................                 ............        .....................................",
"..............................................................                    .............       .....................................",
"............................................................                     ..............       .....................................",
"..........................................................                        .............       .....................................",
"........................................................                          ............        .....................................",
".......................................................                           ............        .....................................",
".....................................................                              ..........         .....................................",
"...................................................                                 ........         ......................................",
"..................................................                                    .....          ......................................",
".................................................                                                   .......................................",
"...............................................                            ..                       .......................................",
"..............................................                         ......                      ........................................",
".............................................                        .........                    .........................................",
"...........................................                        ............                  .......................         ..........",
"..........................................                      .................              ......................              ........",
".........................................                      ....................          .......................                 ......",
"........................................                     ......................................................                   .....",
".......................................                    .......................................................                     ....",
"......................................                    .......................................................                       ...",
".....................................                   ........................................................                        ...",
"....................................                   .........................................................          ....           ..",
"...................................                  ............................................                       ........         ..",
"..................................                  .......................................                            ..........         .",
".................................                  ...................................                                 ...........        .",
".................................                 .................................                                   ............        .",
"................................                 ..............................                                       .............       .",
"...............................                 ............................                                          .............       .",
"..............................                 ..........................                                             .............       .",
".............................                 .........................                                               .............       .",
".............................                .......................                                                  ............        .",
"............................                ......................                                                     ...........        .",
"...........................                .....................                                                       ..........         .",
"..........................                ....................                                                           .......         ..",
"..........................               ...................                                              ......                         ..",
".........................                .................                                       ...............                        ...",
"........................                ................                                   ......................                      ....",
"........................               ...............                                 ...........................                     ....",
".......................               ...............                              ................................                   .....",
"......................               ..............                             ....................................                .......",
"......................               .............                           .........................................             ........",
".....................               ............                           .............................................        ...........",
".....................              ............                         ...................................................................",
"....................               ..........                         .....................................................................",
"...................               ..........                        .......................................................................",
"...................              ..........                       .........................................................................",
"..................               .........                      ...........................................................................",
"..................              ........                       ............................................................................",
".................               .......                      ..............................................................................",
".................              .......                     ................................................................................",
"................               ......                     ..............    ...............................................................",
"................              ......                    .............           ...........................................................",
"...............              ......                    ............               .........................................................",
"...............              .....                   ............                  ........................................................",
"...............             .....                   ............                    .......................................................",
"..............              ....                   ............                      ......................................................",
"..............             ....                  ..............                       .....................................................",
".............              ...                  ..........                             ....................................................",
".............              ..                  ......                  ......          ....................................................",
"............              ..                  ....                    .........        ....................................................",
"............              .                  ..                      ...........        ...................................................",
"............             .                  .                       ............        ...................................................",
"...........                                                         .............       ...................................................",
"...........                                                         .............       ...................................................",
"..........                                                          .............       ...................................................",
"..........                                                          .............       ...................................................",
"..........                                                          .............       ...................................................",
".........                                                           ............        ...................................................",
".........                                                            ...........        ...................................................",
".........                                                             .........        ....................................................",
"........                                                  ...           .....          ....................................................",
"........                                              ........                         ....................................................",
"........                                            ...........                       .....................................................",
"........                                          .............                      ......................................................",
".......                                         ................                    .......................................................",
".......                                       ...................                  ........................................................",
".......                                     .......................               .........................................................",
"......                                     ..........................           ...........................................................",
"......                                    ..............................    ...............................................................",
"......                                  ...................................................................................................",
"......                                 ....................................................................................................",
".....                                 .....................................................................................................",
".....                                ......................................................................................................",
".....                               .......................................................................................................",
".....                              ........................................................................................................",
"....                              .........................................................................................................",
"....                             ..........................................................................................................",
"....                            ...........................................................................................................",
"....                           ............................................................................................................",
"....                          .............................................................................................................",
"...                          ..............................................................................................................",
"...                          ..............................................................................................................",
"...                         ...............................................................................................................",
"...                        ................................................................................................................",
"...                       .................................................................................................................",
"...                       .................................................................................................................",
"..                       ..................................................................................................................",
"..                      ...................................................................................................................",
"..                      ...................................................................................................................",
"..                     ....................................................................................................................",
"..                     ....................................................................................................................",
"..                    .....................................................................................................................",
"..                    .....................................................................................................................",
"..                   ......................................................................................................................",
".                    ......................................................................................................................",
".                   .......................................................................................................................",
".                   .......................................................................................................................",
".                  ........................................................................................................................",
".                  ........................................................................................................................",
".                 .........................................................................................................................",
".                 .........................................................................................................................",
".                ..........................................................................................................................",
".                ..........................................................................................................................",
".               ...........................................................................................................................",
".               ...........................................................................................................................",
".               ...........................................................................................................................",
".              ............................................................................................................................",
".              ............................................................................................................................",
".              ............................................................................................................................",
".             .............................................................................................................................",
".             .............................................................................................................................",
".             ............................................................................................................................."
};
