/* XPM */
static char *_skaj_x1fw5[] = {
/* columns rows colors chars-per-pixel */
"32 32 102 2 ",
"   c black",
".  c #6D5B37",
"X  c #6E5C38",
"o  c #705D39",
"O  c #715E3A",
"+  c #73613D",
"@  c #74623E",
"#  c #776440",
"$  c #786541",
"%  c #796742",
"&  c #7A6843",
"*  c #7B6945",
"=  c #7D6A46",
"-  c #7E6B47",
";  c #7F6C48",
":  c #806D48",
">  c #816E49",
",  c #826F4A",
"<  c #84704B",
"1  c #85714C",
"2  c #86724D",
"3  c #87734E",
"4  c #87754F",
"5  c #887650",
"6  c #8A7751",
"7  c #8B7852",
"8  c #8D7A55",
"9  c #8E7B56",
"0  c #8F7C57",
"q  c #917D58",
"w  c #927E59",
"e  c #937F5A",
"r  c #93805B",
"t  c #94815C",
"y  c #95835D",
"u  c #97845E",
"i  c #98855F",
"p  c #998660",
"a  c #9A8761",
"s  c #9B8862",
"d  c #9E8B66",
"f  c #9F8C67",
"g  c #A08C68",
"h  c #A18D69",
"j  c #A28E6A",
"k  c #A48F6C",
"l  c #A5926E",
"z  c #AB9773",
"x  c #AC9874",
"c  c #AC9975",
"v  c #AD9A76",
"b  c #AE9B78",
"n  c #B09C79",
"m  c #B19D7A",
"M  c #B39F7C",
"N  c #B4A17E",
"B  c #B6A27F",
"V  c #B7A380",
"C  c #B9A683",
"Z  c #BBA885",
"A  c #BFAC89",
"S  c #BFAD8A",
"D  c #C0AE8B",
"F  c #C1AE8D",
"G  c #C3AF8E",
"H  c #C4B08F",
"J  c #C5B291",
"K  c #C6B392",
"L  c #C7B493",
"P  c #C9B594",
"I  c #CAB695",
"U  c #CAB796",
"Y  c #CBB997",
"T  c #CCBA98",
"R  c #CDBB99",
"E  c #CFBB9B",
"W  c #CFBC9C",
"Q  c #D0BD9D",
"!  c #D1BE9E",
"~  c #D2BF9F",
"^  c #D3C0A0",
"/  c #D4C1A2",
"(  c #D5C2A3",
")  c #D6C3A4",
"_  c #D7C4A5",
"`  c #D8C6A6",
"'  c #D9C7A7",
"]  c #DAC7A8",
"[  c #DBC8A9",
"{  c #DCC9AA",
"}  c #DDCAAB",
"|  c #DECBAD",
" . c #E1CEB0",
".. c #E2D0B3",
"X. c #E3D1B4",
"o. c #E4D2B5",
"O. c #E6D3B6",
"+. c #E7D4B7",
"@. c #E8D6B9",
"#. c #EAD8BB",
"$. c #EBD9BC",
"%. c None",
/* pixels */
"%.%.%.%.%.%.%.%.%.%.%.%.%.%.%.%.%.%.%.%.%.%.%.%.%.%.%.%.%.%.%.%.",
"%.%.%.%.%.%.%.%.%.%.%.%.%.%.%.%.%.%.%.%.%.%.%.%.%.%.%.%.%.%.%.%.",
"%.%.%.%.%.%.%.%.%.%.%.%.%.%.%.%.%.%.%.%.%.%.%.%.%.%.%.%.%.%.%.%.",
"%.%.%.%.%.%.%.%.%.%.%.%.%.%.%.%.%.%.%.%.%.%.%.%.%.%.%.%.%.%.%.%.",
"%.%.%.%.%.%.%.%.%.%.%.%.%.%.%.    %.%.%.%.%.%.%.%.%.%.%.%.%.%.%.",
"%.%.%.%.%.%.%.%.%.%.%.%.%.%.  S n   %.%.%.%.%.%.%.%.%.%.%.%.%.%.",
"%.%.%.%.%.%.%.%.%.%.%.%.%.  F | B :   %.%.%.%.%.%.%.%.%.%.%.%.%.",
"%.%.%.%.%.%.%.%.%.%.%.%.  b | ! C 7 o   %.%.%.%.%.%.%.%.%.%.%.%.",
"%.%.%.%.%.%.%.%.%.%.%.  N $.R Q z 4 j @   %.%.%.%.%.%.%.%.%.%.%.",
"%.%.%.%.%.%.%.%.%.%.  G  .K E ' H 5 $ t 1   %.%.%.%.%.%.%.%.%.%.",
"%.%.%.%.%.%.%.%.%.  M { T _ ^ R j 1 a 5 6 +   %.%.%.%.%.%.%.%.%.",
"%.%.%.%.%.%.%.%.  m #.Q W T W ] L 8 ; 2 9 f O   %.%.%.%.%.%.%.%.",
"%.%.%.%.%.%.%.  G X.K R ( ( Q T g > r r 2 # p 1   %.%.%.%.%.%.%.",
"%.%.%.%.%.%.  V [ U ) ( Y E ! ' K 0 2 ; 8 a 1 5 #   %.%.%.%.%.%.",
"%.%.%.%.%.  v @.! ~ T R ` ^ E R k ; 7 i 6 * 5 w s X   %.%.%.%.%.",
"%.%.%.%.  D +.L Y ~ ( / I Q ^ ` F 0 9 & 4 y 0 , * d ,   %.%.%.%.",
"%.%.%.  Z [ P ( _ R T W ' W T Q x : < a 9 > > w i ; 5 =   %.%.%.",
"%.%.  c O.! ( R Y _ / ! I / ( ( C 9 y * 1 q u 2 * 9 w u .   %.%.",
"%.  Z @.I Y Q ( ) U W ^ ` R T / B , * u w 5 & 8 u 6 : ; h -   %.",
"  D  .E E _ W R R ` ~ E Y ( ( ! b 7 s > , 4 s 6 ; 2 t w ; w =   ",
"%.    H ..U ! ( ^ I ! ( ( Y T _ A 2 % q e q $ 4 r e - 9 5     %.",
"%.%.%.    W [ E W _ W T W ) / E l 4 s 4 , > a 8 2 < p     %.%.%.",
"%.%.%.%.%.    ~ _ Q E _ ! T E ] J 6 * 5 w r - 8 7     %.%.%.%.%.",
"%.%.%.%.%.%.%.    D o.I ! ( ~ T h < u 0 > 6 9     %.%.%.%.%.%.%.",
"%.%.%.%.%.%.%.%.%.    _ ) ! E ' P 7 1 1 u     %.%.%.%.%.%.%.%.%.",
"%.%.%.%.%.%.%.%.%.%.%.    U } Q d 9 3     %.%.%.%.%.%.%.%.%.%.%.",
"%.%.%.%.%.%.%.%.%.%.%.%.%.    I R     %.%.%.%.%.%.%.%.%.%.%.%.%.",
"%.%.%.%.%.%.%.%.%.%.%.%.%.%.%.    %.%.%.%.%.%.%.%.%.%.%.%.%.%.%.",
"%.%.%.%.%.%.%.%.%.%.%.%.%.%.%.%.%.%.%.%.%.%.%.%.%.%.%.%.%.%.%.%.",
"%.%.%.%.%.%.%.%.%.%.%.%.%.%.%.%.%.%.%.%.%.%.%.%.%.%.%.%.%.%.%.%.",
"%.%.%.%.%.%.%.%.%.%.%.%.%.%.%.%.%.%.%.%.%.%.%.%.%.%.%.%.%.%.%.%.",
"%.%.%.%.%.%.%.%.%.%.%.%.%.%.%.%.%.%.%.%.%.%.%.%.%.%.%.%.%.%.%.%."
};
