/* XPM */
static char *im4ts_bco4h[] = {
/* columns rows colors chars-per-pixel */
"128 128 56 1 ",
"  c #952513",
". c #982713",
"X c #942916",
"o c #9B2A15",
"O c #962C18",
"+ c #992E19",
"@ c #9F3017",
"# c #9C311A",
"$ c #A12E17",
"% c #A12F18",
"& c #A03017",
"* c #A5341B",
"= c #AB361B",
"- c #A6391E",
"; c #AD3A1D",
": c #B13C1E",
"> c #AB3D21",
", c #B33E20",
"< c #AE4123",
"1 c #B44323",
"2 c #BA4523",
"3 c #B64926",
"4 c #BD4A26",
"5 c #B64B28",
"6 c #BA4D29",
"7 c #BE512B",
"8 c #C14C27",
"9 c #C24E28",
"0 c #C4532B",
"q c #C9562C",
"w c #C6592F",
"e c #CD5A2E",
"r c #D05D2F",
"t c #C65D31",
"y c #CA5E32",
"u c #D15E30",
"i c #D2602F",
"p c #D36031",
"a c #D66B3B",
"s c #D7713F",
"d c #D67342",
"f c #DB7D4B",
"g c #DD824F",
"h c #DD8552",
"j c #DC8D59",
"k c #DF9760",
"l c #E39C67",
"z c #E49F69",
"x c #E5A16B",
"c c #E7A770",
"v c #E9AD76",
"b c #EAB27A",
"n c #ECBA81",
"m c #EEC186",
"M c #EEC58B",
"N c None",
/* pixels */
"NNNNNNNNNNNNNNNNNNNNNNNNNNNNNNNNNNNNNNNNNNNNNNNNNNNNNNNNNNNNNNNNNNNNNNNNNNNNNNNNNNNNNNNNNNNNNNNNNNNNNNNNNNNNNNNNNNNNNNNNNNNNNNNN",
"NNNNNNNNNNNNNNNNNNNNNNNNNNNNNNNNNNNNNNNNNNNNNNNNNNNNNNNNNNNNNNNNNNNNNNNNNNNNNNNNNNNNNNNNNNNNNNNNNNNNNNNNNNNNNNNNNNNNNNNNNNNNNNNN",
"NNNNNNNNNNNNNNNNNNNNNNNNNNNNNNNNNNNNNNNNNNNNNNNNNNNNNNNNNNNNNNNNNNNNNNNNNNNNNNNNNNNNNNNNNNNNNNNNNNNNNNNNNNNNNNNNNNNNNNNNNNNNNNNN",
"NNNNNNNNNNNNNNNNNNNNNNNNNNNNNNNNNNNNNNNNNNNNNNNNNNNNNNNNNNNNNNNNNNNNNNNNNNNNNNNNNNNNNNNNNNNNNNNNNNNNNNNNNNNNNNNNNNNNNNNNNNNNNNNN",
"NNNNNNNNNNNNNNNNNNNNNNNNNNNNNNNNNNNNNNNNNNNNNNNNNNNNNNNNNNNNNNNNNNNNNNNNNNNNNNNNNNNNNNNNNNNNNNNNNNNNNNNNNNNNNNNNNNNNNNNNNNNNNNNN",
"NNNNNNNNNNNNNNNNNNNNNNNNNNNNNNNNNNNNNNNNNNNNNNNNNNNNNNNNNNNNNNNNNNNNNNNNNNNNNNNNNNNNNNNNNNNNNNNNNNNNNNNNNNNNNNNNNNNNNNNNNNNNNNNN",
"NNNNNNNNNNNNNNNNNNNNNNNNNNNNNNNNNNNNNNNNNNNNNNNNNNNNNNNNNNNNNNNNNNNNNNNNNNNNNNNNNNNNNNNNNNNNNNNNNNNNNNNNNNNNNNNNNNNNNMMMNNNNNNNN",
"NNNNNNNNNNNNNNNNNNNNNNNNNNNNNNNNNNNNNNNNNNNNNNNNNNNNNNNNNNNNNNNNNNNNNNNNNNNNNNNNNNNNNNNNNNNNNNNNNNNNNNNNNNNNNNNNNNNMMMMMMNNNNNNN",
"NNNNNNNNNNNNNNNNNNNNNNNNNNNNNNNNNNNNNNNNNNNNNNNNNNNNNNNNNNNNNNNNNNNNNNNNNNNNNNNNNNNNNNNNNNNNNNNNNNNNNNNNNNNNNNNNNNMMMMMMMMNNNNNN",
"NNNNNNNNNNNNNNNNNNNNNNNNNNNNNNNNNNNNNNNNNNNNNNNNNNNNNNNNNNNNNNNNNNNNNNNNNNNNNNNNNNNNNNNNNNNNNNNNNNNNNNNNNNNNNNNNNMMMMMMMMMNNNNNN",
"NNNNNNNNNNNNNNNNNNNNNNNNNNNNNNNNNNNNNNNNNNNNNNNNNNNNNNNNNNNNNNNNNNNNNNNNNNNNNNNNNNNNNNNNNNNNNNNNNNNNNNNNNNNNNNNNMMMMMMMMMMNNNNNN",
"NNNNNNNNNNNNNNNNNNNNNNNNNNNNNNNNNNNNNNNNNNNNNNNNNNNNNNNNNNNNNNNNNNNNNNNNNNNNNNNNNNNNNNNNNNNNNNNNNNNNNNNNNNNNNNNMMMMMMMMMMMNNNNNN",
"NNNNNNNNNNNNNNNNNNNNNNNNNNNNNNNNNNNNNNNNNNNNNNNNNNNNNNNNNNNNNNNNNNNNNNNNNNNNNNNNNNNNNNNNNNNNNNNNNNNNNNNNNNNNNNmMMMMMMMMMMNNNNNNN",
"NNNNNNNNNNNNNNNNNNNNNNNNNNNNNNNNNNNNNNNNNNNNNNNNNNNNNNNNNNNNNNNNNNNNNNNNNNNNNNNNNNNNNNNNNNNNNNNNNNNNNNNNNNNNNhhfhvMMMMMMNNNNNNNN",
"NNNNNNNNNNNNNNNNNNNNNNNNNNNNNNNNNNNNNNNNNNNNNNNNNNNNNNNNNNNNNNNNNNNNNNNNNNNNNNNNNNNNNNNNNNNNNNNNNNNNNNNNNNyyppppppzMMMMNNNNNNNNN",
"NNNNNNNNNNNNNNNNNNNNNNNNNNNNNNNNNNNNNNNNNNNNNNNNNNNNNNNNNNNNNNNNNNNNNNNNNNNNNNNNNNNNNNNNNNNNNNNNNNNNNNyyyyyppppppuaMMMNNNNNNNNNN",
"NNNNNNNNNNNNNNNNNNNNNNNNNNNNNNNNNNNNNNNNNNNNNNNNNNNNNNNNNNNNNNNNNNNNNNNNNNNNNNNNNNNNNNNNNNNNNNNNNNpppyyyyupppppppppmMNNNNNNNNNNN",
"NNNNNNNNNNNNNNNNNNNNNNNNNNNNNNNNNNNNNNNNNNNNNNNNNNNNNNNNNNNNNNNNNNNNNNNNNNNNNNNNNNNNNNNNNNpipuipppppyyyyyipri0rppppMNNNNNNNNNNNN",
"NNNNNNNNNNNNNNNNNNNNNNNNNNNNNNNNNNNNNNNNNNNNNNNNNNNNNNNNNNNNNNNNNNNNNNNNNNNNNuuyyyyypppppppppppppppyyyyyppr0* *pppdNNNNNNNNNNNNN",
"NNNNNNNNNNNNNNNNNNNNNNNNNNNNNNNNNNNNNNNNNNNNNNNNNNNNNNNNNNNNNNNNNNNNNNppupppppyyyyypppppppppppppppyyyyeq4:o   =ppudNNNNNNNNNNNNN",
"NNNNNNNNNNNNNNNNNNNNNNNNNNNNNNNNNNNNNNNNNNNNNNNNNNNNNNNNNNNNNNNNNNiuppppppppuyyyyuuupppprppiuuyyy75<=+.   .  .epppNNNNNNNNNNNNNN",
"NNNNNNNNNNNNNNNNNNNNNNNNNNNNNNNNNNNNNNNNNNNNNNNNNNNNNNNNNNNNNNNupppppppppuppyyyyyureq008222:=*o  XXX        .:rppuNNNNNNNNNNNNNN",
"NNNNNNNNNNNNNNNNNNNNNNNNNNNNNNNNNNNNNNNNNNNNNNNNNNNNNNNNNNNNuippppppppppuuy55<>+$.             X XX . ..$$$ .qppppNNNNNNNNNNNNNN",
"NNNNNNNNNNNNNNNNNNNNNNNNNNNNNNNNNNNNNNNNNNNNNNNNNNNNNNNNNNyipppppppppr01-.X XXX  .          ..   X  .$$=:=  %ppppNNNNNNNNNNNNNNN",
"NNNNNNNNNNNNNNNNNNNNNNNNNNNNNNNNNNNNNNNNNNNNNNNNNNNNNNNNyyppppppppe2*.    XX X.o%$$$=:88:==:-.XXXX&==2::2$. 2rpppNNNNNNNNNNNNNNN",
"NNNNNNNNNNNNNNNNNNNNNNNNNNNNNNNNNNNNNNNNNNNNNNNNNNNNNNtyypppppue2&    . .->342,=:40u02==22=.XXXX>#=2e1:9=. .euppuNNNNNNNNNNNNNNN",
"NNNNNNNNNNNNNNNNNNNNNNNNNNNNNNNNNNNNNNNNNNNNNNNNNNNNtyyypppip0=    .o;2wtw3>=:9eue9:=,99*   X+52-:qu:=e:= ..rupyyNNNNNNNNNNNNNNN",
"NNNNNNNNNNNNNNNNNNNNNNNNNNNNNNNNNNNNNNNNNNNNNNNNNNNyyyypppr4&   .o:9uut6>->6ruue2=:8e0=.  X*67>;7up1:r2=$  =uruyNNNNNNNNNNNNNNNN",
"NNNNNNNNNNNNNNNNNNNNNNNNNNNNNNNNNNNNNNNNNNNNNNNNNtyyyyppi4$   .;9ruur3>-1wuuuq:=,qu0=    -wt1-2upu::r0=9   :uyyyNNNNNNNNNNNNNNNN",
"NNNNNNNNNNNNNNNNNNNNNNNNNNNNNNNNNNNNNNNNNNNNNNNNtyyyypp0&. ..:euiie2-;6yyyu0:=2euq=.  .;wy7->0ppr,:er=8:   2yyyyNNNNNNNNNNNNNNNN",
"NNNNNNNNNNNNNNNNNNNNNNNNNNNNNNNNNNNNNNNNNNNNNNNyyyyype;   o,ruuue2=>0yyyu0:=8rue:    :eye3-3eppu2:ru::e.  X0yyyyNNNNNNNNNNNNNNNN",
"NNNNNNNNNNNNNNNNNNNNNNNNNNNNNNNNNNNNNNNNNNNNNpyyyyyp4o   :epppr2=10yyyyq,;4eru2.  .=erew>-7pupu1=er8:r:   XtyyypNNNNNNNNNNNNNNNN",
"NNNNNNNNNNNNNNNNNNNNNNNNNNNNNNNNNNNNNNNNNNNNuyyyyye=  .*0pppu4;,wyyyyq2=,yuu8$ . >quut3>1uuuuu,:euq=9r.   XttypNNNNNNNNNNNNNNNNN",
"NNNNNNNNNNNNNNNNNNNNNNNNNNNNNNNNNNNNNNNNNNNpyyyyr0o...4prpu0;,9uyyyy6=:euuu;  .$8uuuy,-6ypuuu,:eur:2u,  XXOtyppNNNNNNNNNNNNNNNNN",
"NNNNNNNNNNNNNNNNNNNNNNNNNNNNNNNNNNNNNNNNNNiyyyyy:. .*eppur2=4uuyyy0>;9upp9. ..3uuuuw>>wyuuuu,:ruu2:re. .XX*ypppNNNNNNNNNNNNNNNNN",
"NNNNNNNNNNNNNNNNNNNNNNNNNNNNNNNNNNNNNNNNNiyyyyt-  .2ripp9=:rppyyq3-2rure:   =epppu6>,typppu,:euu9=er,  %XX-ppppNNNNNNNNNNNNNNNNN",
"NNNNNNNNNNNNNNNNNNNNNNNNNNNNNNNNNNNNNNNNiyyyyw+. $0uuuu2:9pppyy0>-0prp9o  o8ppppu3*5yypppu,:uuue;8uq  X<  :ppppNNNNNNNNNNNNNNNNN",
"NNNNNNNNNNNNNNNNNNNNNNNNNNNNNNNNNNNNNNNryyyy7o  =ruuue::euppyy6-3yppr:.. =rrpupu1>9yupppu2:euuu:2pp*XX-<  1pppuNNNNNNNNNNNNNNNNN",
"NNNNNNNNNNNNNNNNNNNNNNNNNNNNNNNNNNNNNNiyyye7. .;upuu0=2uuuuyy,>7pppe$. o9puuuue>>tyyuuuu,:euuu,:ru0XX#-<  9ppppNNNNNNNNNNNNNNNNN",
"NNNNNNNNNNNNNNNNNNNNNNNNNNNNNNNNNNNNNryyyy6.  2ruuu8=9ppuuu0->wupu8.  *erpppu0>,tyyuuuu,:ruuu8;upu+XX>1- .0pppNNNNNNNNNNNNNNNNNN",
"NNNNNNNNNNNNNNNNNNNNNNNNNNNNNNNNNNNNeyyyy7   4ripu4=quuuuy6-3yrrp1   ,ippppu0>3tyypppu,,rupu0=0up5XX>-9$  erppNNNNNNNNNNNNNNNNNN",
"NNNNNNNNNNNNNNNNNNNNNNNNNNNNNNNNNNNNyyyt7.. 4ippu,:euuuuy1-6yppr=. o9rppuup8*3yyyupuu,,upppr=8ppqOXX8=e$  ruppNNNNNNNNNNNNNNNNNN",
"NNNNNNNNNNNNNNNNNNNNNNNNNNNNNNNNNNNyyyywo  6pppr,:upuppy>>wyppe$  $eppppuu1>6yyyuppu,:euppr::uuy>XX<2,9. $upppNNNNNNNNNNNNNNNNNN",
"NNNNNNNNNNNNNNNNNNNNNNNNNNNNNNNNNNyyyye$  1pppp::rupppy>>tyuue$  =rrppppu,>0yyypppu,:uuuur2:ruu7 X#y=02$ =ppppNNNNNNNNNNNNNNNNNN",
"NNNNNNNNNNNNNNNNNNNNNNNNNNNNNNNNNtyyyy; .:pppu2:yuppy0><yyup0.  ,upppppr,>0yyuuuuu,:euuur9=epytOXX08:u=  =ppppNNNNNNNNNNNNNNNNNN",
"NNNNNNNNNNNNNNNNNNNNNNNNNNNNNNNNNyyyy2  =uppp2=rppppw>1yyuu0.  2ppppppr:>ttyyuuuu,,uuuppq=9iyy<X >r:4e=  2ppppNNNNNNNNNNNNNNNNNN",
"NNNNNNNNNNNNNNNNNNNNNNNNNNNNNNNNtyyyq..oerpp8=erppp6-1yypu8...8ppppprr:>tyyuupuu,:uuuupu-4piy7X .yq=e8=  8rpppNNNNNNNNNNNNNNNNNN",
"NNNNNNNNNNNNNNNNNNNNNNNNNNNNNNNNyyyi* .9ppr9=eprpu0-5yypp8..o9rpppppe:>yyyypppr,:epuuue,1pyyy#  7u12r::  0uuppNNNNNNNNNNNNNNNNNN",
"NNNNNNNNNNNNNNNNNNNNNNNNNNNNNNNyyyi4  ;ippr=8uuup0-3tyup9. .0upppppe>,tyyypppu,,ripppu,:ryyy<X ;re=er==  ppppyNNNNNNNNNNNNNNNNNN",
"NNNNNNNNNNNNNNNNNNNNNNNNNNNNNNNyypeo orpur:2puuu0-6yyuu0. .9ppppppe;<yyyyupuu,:eppppp2;eyyyw  +ru2:u9== +pppyyNNNNNNNNNNNNNNNNNN",
"NNNNNNNNNNNNNNNNNNNNNNNNNNNNNNyypp1 .6ppu2:upppq>3typuq. .0ppppppq;,yyyypppu,:eupppi9=eyyyt+..0ur=0r22o ;ipyytNNNNNNNNNNNNNNNNNN",
"NNNNNNNNNNNNNNNNNNNNNNNNNNNNNNyppy. *ppp0=epppy-1yyupq...9upppppy;,yyyypppu,:rpuppp9=9eyyy> .:uu8:rr=8  1pyyytNNNNNNNNNNNNNNNNNN",
"NNNNNNNNNNNNNNNNNNNNNNNNNNNNNyppr:  9ppr;8upuy>,yypiy$  8pppuuuq;,tyyyppur,:epppppq=6yyyy6  $rpr=0u9;9  9yyyytNNNNNNNNNNNNNNNNNN",
"NNNNNNNNNNNNNNNNNNNNNNNNNNNNNuppr  =iiu2,puuy>>yyppr%  2pppppuy;,yyyyppur,:ruupppe;2yyyywo oqii2=ru:21  wyyyyNNNNNNNNNNNNNNNNNNN",
"NNNNNNNNNNNNNNNNNNNNNNNNNNNNNppp2..9uue=qpuy1-tyupu; .:uppuupr:,yyyypppu,:uuppppe:1yyyye&  2ppe;qur=q- .yyyypNNNNNNNNNNNNNNNNNNN",
"NNNNNNNNNNNNNNNNNNNNNNNNNNNNpppu$ $ppr:2ppy5-wyppp:  =uuppuur:>yyyyuppu,:rpppppu,:eyyyy:  ;upp1:uu8:p.X-yyyupNNNNNNNNNNNNNNNNNNN",
"NNNNNNNNNNNNNNNNNNNNNNNNNNNNupp0  2ru8:ruy0-6yppp9 .$ruppppr:>yyyupppu::euppppu2;yyyyy8  $upu0;quu:9qX >yyppuNNNNNNNNNNNNNNNNNNN",
"NNNNNNNNNNNNNNNNNNNNNNNNNNNNppp: .rrr;8uyy>1ypppq. .rpupppu:>yyyupppu::upupppp2:wyyyyq. .epuu:2prq=r2XX7ypppuNNNNNNNNNNNNNNNNNNN",
"NNNNNNNNNNNNNNNNNNNNNNNNNNNpppu. =up8:uyt3-yppur$ .9ppppuu,>yyyyupuu::uuppppu4=0yyyye+..8ruu8:uuu:8y>XXtpppppNNNNNNNNNNNNNNNNNNN",
"NNNNNNNNNNNNNNNNNNNNNNNNNNNuuu0  4pu;8yy0-9uppp=  2rppppu1>qyyypppu::rpppppp8-0yyyyu*  :uuue=8ppq=0rOX#yppppNNNNNNNNNNNNNNNNNNNN",
"NNNNNNNNNNNNNNNNNNNNNNNNNNNppp:..eu8:yyy>1pppp4  =pppppp2-tyyypppu,:uuuppuu8=6yyyyp:  =uppp2,upp11tt  >uppppNNNNNNNNNNNNNNNNNNNN",
"NNNNNNNNNNNNNNNNNNNNNNNNNNNppp$ *ru;6yy6>yppue. oeppppu2-wyyyupuu,:upppppu0;4yyyur2  $rppp9=eppq-wy3X 0upppiNNNNNNNNNNNNNNNNNNNN",
"NNNNNNNNNNNNNNNNNNNNNNNNNNuppu  ,p9-yyy-4uupu%..9ppppi9-0yyyuppu,:euppuup0-4yyyyu9  .eppur=8uuu><yy- .yuppppNNNNNNNNNNNNNNNNNNNN",
"NNNNNNNNNNNNNNNNNNNNNNNNNNupp8  0i;5yy3;yuup1. ,ipppp0-6yyyuupu,:uuuppuu0:6yyyyp9. .0rppu,:uuuw-wyeo =pppppNNNNNNNNNNNNNNNNNNNNN",
"NNNNNNNNNNNNNNNNNNNNNNNNNNppi: Xy0-wyq=9ppu0  *uuuuu0>6yyuuuuu,:ruupuuuq=2yyyype.. 4uuuu8=euuy>1yy8 .2uuppuNNNNNNNNNNNNNNNNNNNNN",
"NNNNNNNNNNNNNNNNNNNNNNNNNNppi* @y1<yy8:pppu$ .qppuue>3yyyppuu,:uuuppuue;2yyyypeo .2uppre=9uuy4>wyu,  epppppNNNNNNNNNNNNNNNNNNNNN",
"NNNNNNNNNNNNNNNNNNNNNNNNNNppioX-y-0yr=0upp,  2ppppy>>tyyppuu::ruppppuq>3tyyyueo .:ppppu:1ppuy>6ypu+ *pppppNNNNNNNNNNNNNNNNNNNNNN",
"NNNNNNNNNNNNNNNNNNNNNNNNNippq X<6-yu4:ppuq  *upppu>,yyypppu,:rppppppq>2yyyyuy% .:ppppp2:upyy3>ypp0. 1pppppNNNNNNNNNNNNNNNNNNNNNN",
"NNNNNNNNNNNNNNNNNNNNNNNNNipp7X 5>3uu=0rpu$ .euupp,>yyypppu,,ruppppuq;1yyyyur%  =upppu8;epyy0>6ppr:  eupppNNNNNNNNNNNNNNNNNNNNNNN",
"NNNNNNNNNNNNNNNNNNNNNNNNNipp<X 7*qu4:rpp2  1ppup3>wyuuppu,:rppppppq;1yyyyur%..%upppp0;8pyyy>1uppr. *uupprNNNNNNNNNNNNNNNNNNNNNNN",
"NNNNNNNNNNNNNNNNNNNNNNNNNipy<XX2:uu:9prq. $rppu4>0yyuuuu,,euppppp0=3yyyyuu%  =uuupu0:2uyyy6>yppp4  4pppppNNNNNNNNNNNNNNNNNNNNNNN",
"NNNNNNNNNNNNNNNNNNNNNNNNNpyy#Xo:8u9;rpp= .0ppu0-5yyuuur::uuupppuq:2yyyyur%  *uuuuur:2uyyyw*0uupp$ $uppprNNNNNNNNNNNNNNNNNNNNNNNN",
"NNNNNNNNNNNNNNNNNNNNNNNNNyyy#X*=qu:8ru8  ;uppq-3ttuupu,:rpppppu0=5yyyure$  *rpppuu::uyyyy;2pppp9  :rppppNNNNNNNNNNNNNNNNNNNNNNNN",
"NNNNNNNNNNNNNNNNNNNNNNNNNyyyX =:u0:ruu$..yppy>>yyuuuu,:rpppppp9-3yyyyr0$  =uupppu::ryyyy1:ppppp* .rpppuNNNNNNNNNNNNNNNNNNNNNNNNN",
"NNNNNNNNNNNNNNNNNNNNNNNNNyye  *2p,,uu,  3uuy<>yyuppu::ruppppp9=4yyyypq$  =rppppu,:yyyyy2;epppp9  :rppppNNNNNNNNNNNNNNNNNNNNNNNNN",
"NNNNNNNNNNNNNNNNNNNNNNNNtyye  $0r:que. $uuy1-tyuppu,:uuupppu9=8yyyyp8o .;rpppur2:eyyyy0-0upppi$ .eppprNNNNNNNNNNNNNNNNNNNNNNNNNN",
"NNNNNNNNNNNNNNNNNNNNNNNNeyi0 .$r8:uu:  9uy6>wuppur::rpppppp2=0yyyyp4.  :pppppu2=qyyyy0=9ppppp2  :ipppNNNNNNNNNNNNNNNNNNNNNNNNNNN",
"NNNNNNNNNNNNNNNNNNNNNNNNrpp6  :u:8u0  =ryw-4yppur,:uuupppu2;wyyyyp1   2rpppuu2=eyyyyw=4pppppq. orpppyNNNNNNNNNNNNNNNNNNNNNNNNNNN",
"NNNNNNNNNNNNNNNNNNNNNNNNupr8. 20=eu=  eyy-3yuupr::uuppppr1=wtyyyr;  .8ppppuu,=ryyyy0=4pppppu&..8uppyNNNNNNNNNNNNNNNNNNNNNNNNNNNN",
"NNNNNNNNNNNNNNNNNNNNNNNNuuu:  022u8  :yy>>yppur::upppuuu:;wyyyye&. oqpppppr::eyyyyw;2uppppu=  :pppyNNNNNNNNNNNNNNNNNNNNNNNNNNNNN",
"NNNNNNNNNNNNNNNNNNNNNNNNppp>  r=9u$ .wy3-qpppr::rpppppe=:yyyyy0o. $qppppur::eyyyy0;2uuuurr-  $rppytNNNNNNNNNNNNNNNNNNNNNNNNNNNNN",
"NNNNNNNNNNNNNNNNNNNNNNNNppp;..8=u4  <y6-wppuu::rppppre:,yyyyy2.  =epppppq:,uyyyy8-8puuppr*. $rppyyNNNNNNNNNNNNNNNNNNNNNNNNNNNNNN",
"NNNNNNNNNNNNNNNNNNNNNNNNppp* o:2r. oyw-6yppr::rupppp9=8yyyyy=   :pppppp0;1uyyyy6-8uppppr$  *rppyyNNNNNNNNNNNNNNNNNNNNNNNNNNNNNNN",
"NNNNNNNNNNNNNNNNNNNNNNNNpppo ==q1 X3t>1puuu::upuppi2=9yyyy0o ..9ippppr2=8uyyyy1;9upppu9$ .*urpyyNNNNNNNNNNNNNNNNNNNNNNNNNNNNNNNN",
"NNNNNNNNNNNNNNNNNNNNNNNNppu  =:e. Oy1>uuur::upppuu1=0yyyy5  .$euppure::0uyyyw;:eppurp4   ;pppyytNNNNNNNNNNNNNNNNNNNNNNNNNNNNNNNN",
"NNNNNNNNNNNNNNNNNNNNNNNpppe. $41XX56-wpuu:,uppppe::eyyyw- . ;rpppuu8=2rryyy6-,rpppur:   5pppyytNNNNNNNNNNNNNNNNNNNNNNNNNNNNNNNNN",
"NNNNNNNNNNNNNNNNNNNNNNNppp9  $eXXO7-8uur::uupupq;,iyyy6O  .4pppupq:=0puyyt1-8ppppp9.  o9pppyytNNNNNNNNNNNNNNNNNNNNNNNNNNNNNNNNNN",
"NNNNNNNNNNNNNNNNNNNNNNNppp2  ;;X 3>3uuu:,upppu8=4pyyt>   &eupppe,=8rupyy6>>epppie:   =euppyytNNNNNNNNNNNNNNNNNNNNNNNNNNNNNNNNNNN",
"NNNNNNNNNNNNNNNNNNNNNNNpuu*  <XX%,:uur::uuuuu,:9pyy5OX o2uuurr2=2euupyw>-6uurir:.  .2ppppyytNNNNNNNNNNNNNNNNNNNNNNNNNNNNNNNNNNNN",
"NNNNNNNNNNNNNNNNNNNNNNNpuuO X>XX>=euu::uuure::euy7<XXX&0ppur8=:qruppw<-<yuppe:..  =eppppyytNNNNNNNNNNNNNNNNNNNNNNNNNNNNNNNNNNNNN",
"NNNNNNNNNNNNNNNNNNNNNNNppy X+XX+;9ur:,uuuu0=1uuu3XX. 1eppr2=:0ppuur1*<wypr9*   .=0rupppyytNNNNNNNNNNNNNNNNNNNNNNNNNNNNNNNNNNNNNN",
"NNNNNNNNNNNNNNNNNNNNNNNpu8 XOX %4ur:,uuuu8=9uu0* XX&0ipq:=:qurppe1-,wte0:o    *9rppuppyytNNNNNNNNNNNNNNNNNNNNNNNNNNNNNNNNNNNNNNN",
"NNNNNNNNNNNNNNNNNNNNNNppu>.X  .,ue:,uupe::quu>X  .1pu8:=2euuiu0:=17t5>o    .;qpprppppyyNNNNNNNNNNNNNNNNNNNNNNNNNNNNNNNNNNNNNNNNN",
"NNNNNNNNNNNNNNNNNNNNNNppy+XX .%ey:,uuuq=,yu3OX X=ee4:=8euurr2;=25>OXX  . =4rpippppppyyNNNNNNNNNNNNNNNNNNNNNNNNNNNNNNNNNNNNNNNNNN",
"NNNNNNNNNNNNNNNNNNNNNNyy7XX ..8e,,eue,=9u9O XXO5q:=:8rrue8:=*-@XX  X .*2eppppupppppetNNNNNNNNNNNNNNNNNNNNNNNNNNNNNNNNNNNNNNNNNNN",
"NNNNNNNNNNNNNNNNNNNNNNtt5   .=e:,uuq::e0% XXO>3>=2quue8=$$.    XXXO>6eiprppppppppiyNNNNNNNNNNNNNNNNNNNNNNNNNNNNNNNNNNNNNNNNNNNNN",
"NNNNNNNNNNNNNNNNNNNNNtyy>X  .e::rr8=29*  XX-;-:9rr8=$.       X#>3ypppppppppppppppNNNNNNNNNNNNNNNNNNNNNNNNNNNNNNNNNNNNNNNNNNNNNNN",
"NNNNNNNNNNNNNNNNNNNNNtyyO ..:::re:=8=.   +*>202-o.      .o*16wyyypppppppppppppuNNNNNNNNNNNNNNNNNNNNNNNNNNNNNNNNNNNNNNNNNNNNNNNNN",
"NNNNNNNNNNNNNNNNNNNNNyyw   .::r8==*    o->-#.  .     =:8qppyyyyyppppppppppppuNNNNNNNNNNNNNNNNNNNNNNNNNNNNNNNNNNNNNNNNNNNNNNNNNNN",
"NNNNNNNNNNNNNNNNNNNNNyy2   %:e:%$    .ooXXX     $;20rurrppyyyyypppppppppppuNNNNNNNNNNNNNNNNNNNNNNNNNNNNNNNNNNNNNNNNNNNNNNNNNNNNN",
"NNNNNNNNNNNNNNNNNNNNtyu=...=2$    .  XXXX  .*:9epppprppppyyyyypppppppppuNNNNNNNNNNNNNNNNNNNNNNNNNNNNNNNNNNNNNNNNNNNNNNNNNNNNNNNN",
"NNNNNNNNNNNNNNNNNNNNypr...o.   . .   XX.#<0yuuppppppppppyyyyypppppriuNNNNNNNNNNNNNNNNNNNNNNNNNNNNNNNNNNNNNNNNNNNNNNNNNNNNNNNNNNN",
"NNNNNNNNNNNNNNNNNNNtpp6 .   .     XX#<7ypppppppppppppppryyyypuipNNNNNNNNNNNNNNNNNNNNNNNNNNNNNNNNNNNNNNNNNNNNNNNNNNNNNNNNNNNNNNNN",
"NNNNNNNNNNNNNNNNNNNppp-   ... ..*17tttyppppppppppppppiyetttNNNNNNNNNNNNNNNNNNNNNNNNNNNNNNNNNNNNNNNNNNNNNNNNNNNNNNNNNNNNNNNNNNNNN",
"NNNNNNNNNNNNNNNNNNjprq    ..$29upyyyyyppppppppupiNNNNNNNNNNNNNNNNNNNNNNNNNNNNNNNNNNNNNNNNNNNNNNNNNNNNNNNNNNNNNNNNNNNNNNNNNNNNNNN",
"NNNNNNNNNNNNNNNNNmspre...=8rrrpiyyyyyuuuNNNNNNNNNNNNNNNNNNNNNNNNNNNNNNNNNNNNNNNNNNNNNNNNNNNNNNNNNNNNNNNNNNNNNNNNNNNNNNNNNNNNNNNN",
"NNNNNNNNNNNNNNNNmxppupe0rrrppppryyNNNNNNNNNNNNNNNNNNNNNNNNNNNNNNNNNNNNNNNNNNNNNNNNNNNNNNNNNNNNNNNNNNNNNNNNNNNNNNNNNNNNNNNNNNNNNN",
"NNNNNNNNNNNNNNNMmdppppprrrppipNNNNNNNNNNNNNNNNNNNNNNNNNNNNNNNNNNNNNNNNNNNNNNNNNNNNNNNNNNNNNNNNNNNNNNNNNNNNNNNNNNNNNNNNNNNNNNNNNN",
"NNNNNNNNNNNNNNmMvpppppprppuNNNNNNNNNNNNNNNNNNNNNNNNNNNNNNNNNNNNNNNNNNNNNNNNNNNNNNNNNNNNNNNNNNNNNNNNNNNNNNNNNNNNNNNNNNNNNNNNNNNNN",
"NNNNNNNNNNNNNMMMzppppppadNNNNNNNNNNNNNNNNNNNNNNNNNNNNNNNNNNNNNNNNNNNNNNNNNNNNNNNNNNNNNNNNNNNNNNNNNNNNNNNNNNNNNNNNNNNNNNNNNNNNNNN",
"NNNNNNNNNNNNMMMMnapppalNNNNNNNNNNNNNNNNNNNNNNNNNNNNNNNNNNNNNNNNNNNNNNNNNNNNNNNNNNNNNNNNNNNNNNNNNNNNNNNNNNNNNNNNNNNNNNNNNNNNNNNNN",
"NNNNNNNNNNNmMMMMMbffzmNNNNNNNNNNNNNNNNNNNNNNNNNNNNNNNNNNNNNNNNNNNNNNNNNNNNNNNNNNNNNNNNNNNNNNNNNNNNNNNNNNNNNNNNNNNNNNNNNNNNNNNNNN",
"NNNNNNNNNNMMMMMMMMMMMNNNNNNNNNNNNNNNNNNNNNNNNNNNNNNNNNNNNNNNNNNNNNNNNNNNNNNNNNNNNNNNNNNNNNNNNNNNNNNNNNNNNNNNNNNNNNNNNNNNNNNNNNNN",
"NNNNNNNNNMMMMMMMMMMMNNNNNNNNNNNNNNNNNNNNNNNNNNNNNNNNNNNNNNNNNNNNNNNNNNNNNNNNNNNNNNNNNNNNNNNNNNNNNNNNNNNNNNNNNNNNNNNNNNNNNNNNNNNN",
"NNNNNNNNMMMMMMMMMMMNNNNNNNNNNNNNNNNNNNNNNNNNNNNNNNNNNNNNNNNNNNNNNNNNNNNNNNNNNNNNNNNNNNNNNNNNNNNNNNNNNNNNNNNNNNNNNNNNNNNNNNNNNNNN",
"NNNNNNNNMMMMMMMMMMNNNNNNNNNNNNNNNNNNNNNNNNNNNNNNNNNNNNNNNNNNNNNNNNNNNNNNNNNNNNNNNNNNNNNNNNNNNNNNNNNNNNNNNNNNNNNNNNNNNNNNNNNNNNNN",
"NNNNNNNMMMMMMMMMMNNNNNNNNNNNNNNNNNNNNNNNNNNNNNNNNNNNNNNNNNNNNNNNNNNNNNNNNNNNNNNNNNNNNNNNNNNNNNNNNNNNNNNNNNNNNNNNNNNNNNNNNNNNNNNN",
"NNNNNNNMMMMMMMMMNNNNNNNNNNNNNNNNNNNNNNNNNNNNNNNNNNNNNNNNNNNNNNNNNNNNNNNNNNNNNNNNNNNNNNNNNNNNNNNNNNNNNNNNNNNNNNNNNNNNNNNNNNNNNNNN",
"NNNNNNNMMMMMMMMNNNNNNNNNNNNNNNNNNNNNNNNNNNNNNNNNNNNNNNNNNNNNNNNNNNNNNNNNNNNNNNNNNNNNNNNNNNNNNNNNNNNNNNNNNNNNNNNNNNNNNNNNNNNNNNNN",
"NNNNNNNNMMMMMMNNNNNNNNNNNNNNNNNNNNNNNNNNNNNNNNNNNNNNNNNNNNNNNNNNNNNNNNNNNNNNNNNNNNNNNNNNNNNNNNNNNNNNNNNNNNNNNNNNNNNNNNNNNNNNNNNN",
"NNNNNNNNNMMMMNNNNNNNNNNNNNNNNNNNNNNNNNNNNNNNNNNNNNNNNNNNNNNNNNNNNNNNNNNNNNNNNNNNNNNNNNNNNNNNNNNNNNNNNNNNNNNNNNNNNNNNNNNNNNNNNNNN",
"NNNNNNNNNNNNNNNNNNNNNNNNNNNNNNNNNNNNNNNNNNNNNNNNNNNNNNNNNNNNNNNNNNNNNNNNNNNNNNNNNNNNNNNNNNNNNNNNNNNNNNNNNNNNNNNNNNNNNNNNNNNNNNNN",
"NNNNNNNNNNNNNNNNNNNNNNNNNNNNNNNNNNNNNNNNNNNNNNNNNNNNNNNNNNNNNNNNNNNNNNNNNNNNNNNNNNNNNNNNNNNNNNNNNNNNNNNNNNNNNNNNNNNNNNNNNNNNNNNN",
"NNNNNNNNNNNNNNNNNNNNNNNNNNNNNNNNNNNNNNNNNNNNNNNNNNNNNNNNNNNNNNNNNNNNNNNNNNNNNNNNNNNNNNNNNNNNNNNNNNNNNNNNNNNNNNNNNNNNNNNNNNNNNNNN",
"NNNNNNNNNNNNNNNNNNNNNNNNNNNNNNNNNNNNNNNNNNNNNNNNNNNNNNNNNNNNNNNNNNNNNNNNNNNNNNNNNNNNNNNNNNNNNNNNNNNNNNNNNNNNNNNNNNNNNNNNNNNNNNNN",
"NNNNNNNNNNNNNNNNNNNNNNNNNNNNNNNNNNNNNNNNNNNNNNNNNNNNNNNNNNNNNNNNNNNNNNNNNNNNNNNNNNNNNNNNNNNNNNNNNNNNNNNNNNNNNNNNNNNNNNNNNNNNNNNN",
"NNNNNNNNNNNNNNNNNNNNNNNNNNNNNNNNNNNNNNNNNNNNNNNNNNNNNNNNNNNNNNNNNNNNNNNNNNNNNNNNNNNNNNNNNNNNNNNNNNNNNNNNNNNNNNNNNNNNNNNNNNNNNNNN",
"NNNNNNNNNNNNNNNNNNNNNNNNNNNNNNNNNNNNNNNNNNNNNNNNNNNNNNNNNNNNNNNNNNNNNNNNNNNNNNNNNNNNNNNNNNNNNNNNNNNNNNNNNNNNNNNNNNNNNNNNNNNNNNNN"
};
